<?xml version="1.0" encoding="UTF-8" standalone="no"?>
<!-- Created with Inkscape (http://www.inkscape.org/) -->

<svg
   width="241.95065mm"
   height="57.661812mm"
   viewBox="0 0 241.95065 57.661812"
   version="1.1"
   id="svg5"
   inkscape:version="1.1.2 (0a00cf5339, 2022-02-04, custom)"
   sodipodi:docname="logo.svg"
   xmlns:inkscape="http://www.inkscape.org/namespaces/inkscape"
   xmlns:sodipodi="http://sodipodi.sourceforge.net/DTD/sodipodi-0.dtd"
   xmlns="http://www.w3.org/2000/svg"
   xmlns:svg="http://www.w3.org/2000/svg">
  <sodipodi:namedview
     id="namedview7"
     pagecolor="#ffffff"
     bordercolor="#666666"
     borderopacity="1.0"
     inkscape:pageshadow="2"
     inkscape:pageopacity="0.0"
     inkscape:pagecheckerboard="0"
     inkscape:document-units="mm"
     showgrid="false"
     fit-margin-top="10"
     fit-margin-left="10"
     fit-margin-right="10"
     fit-margin-bottom="10"
     lock-margins="true"
     inkscape:zoom="0.74475309"
     inkscape:cx="443.09988"
     inkscape:cy="214.16494"
     inkscape:window-width="1920"
     inkscape:window-height="1011"
     inkscape:window-x="0"
     inkscape:window-y="32"
     inkscape:window-maximized="1"
     inkscape:current-layer="layer1" />
  <defs
     id="defs2" />
  <g
     inkscape:label="Layer 1"
     inkscape:groupmode="layer"
     id="layer1"
     transform="translate(-21.642895,-43.29287)">
    <text
       xml:space="preserve"
       style="font-style:normal;font-weight:normal;font-size:10.5833px;line-height:1.25;font-family:sans-serif;fill:#000000;fill-opacity:1;stroke:none;stroke-width:0.264583"
       x="24.514828"
       y="57.793808"
       id="text3201"><tspan
         sodipodi:role="line"
         id="tspan3199"
         style="stroke-width:0.264583"
         x="24.514828"
         y="57.793808" /></text>
    <path
       d="M 72.161071,90.637306 V 51.388621 h 3.755602 v 39.248685 z"
       id="path11483"
       style="font-size:52.8958px;line-height:1.25;font-family:Montserrat;-inkscape-font-specification:'Montserrat, Normal';fill:#053f62;fill-opacity:1;stroke-width:1.3224" />
    <g
       id="g12562">
      <path
         d="m 51.002758,90.954681 q -4.178768,0 -7.722787,-1.375291 -3.544019,-1.428186 -6.135913,-3.967185 -2.591894,-2.538998 -4.072977,-5.977226 -1.428186,-3.438227 -1.428186,-7.511203 0,-4.072977 1.428186,-7.511204 1.481083,-3.438227 4.072977,-5.977226 2.64479,-2.538998 6.188809,-3.914289 3.544019,-1.428187 7.722787,-1.428187 4.020081,0 7.564099,1.375291 3.544019,1.322395 5.977226,4.020081 l -2.486103,2.486103 q -2.274519,-2.327416 -5.025101,-3.332436 -2.750581,-1.057916 -5.92433,-1.057916 -3.332435,0 -6.188808,1.163708 -2.856374,1.110812 -4.972206,3.226644 -2.115832,2.062936 -3.332435,4.866413 -1.163708,2.750582 -1.163708,6.083018 0,3.332435 1.163708,6.135913 1.216603,2.750581 3.332435,4.866413 2.115832,2.062937 4.972206,3.226644 2.856373,1.110812 6.188808,1.110812 3.173749,0 5.92433,-1.057916 2.750582,-1.057916 5.025101,-3.385331 l 2.486103,2.486102 q -2.433207,2.697686 -5.977226,4.072977 -3.544018,1.375291 -7.616995,1.375291 z"
         id="path11481"
         style="font-size:52.8958px;line-height:1.25;font-family:Montserrat;-inkscape-font-specification:'Montserrat, Normal';fill:#053f62;fill-opacity:1;stroke-width:1.3224" />
      <path
         d="m 98.185759,90.901785 q -4.337456,0 -7.616996,-1.798457 -3.279539,-1.851353 -5.130892,-5.025101 -1.851353,-3.226644 -1.851353,-7.352517 0,-4.125872 1.745561,-7.29962 1.798457,-3.173748 4.866414,-4.972206 3.120852,-1.851353 6.982246,-1.851353 3.914291,0 6.929351,1.798458 3.06796,1.745561 4.81352,4.972205 1.74556,3.173748 1.74556,7.352516 0,0.264479 -0.0529,0.581854 0,0.264479 0,0.581854 H 86.442891 v -2.803477 h 22.163339 l -1.48108,1.110811 q 0,-3.01506 -1.3224,-5.342476 -1.26949,-2.380311 -3.49112,-3.702706 -2.22162,-1.322395 -5.130891,-1.322395 -2.856374,0 -5.130893,1.322395 -2.27452,1.322395 -3.544019,3.702706 -1.269499,2.380312 -1.269499,5.448268 v 0.581854 q 0,3.173748 1.375291,5.606955 1.428186,2.380311 3.914289,3.755602 2.538999,1.322395 5.765642,1.322395 2.539,0 4.70773,-0.899229 2.22162,-0.899229 3.80849,-2.750582 l 2.11584,2.433207 q -1.85136,2.221624 -4.65483,3.385332 -2.75059,1.163707 -6.083021,1.163707 z"
         id="path11485"
         style="font-size:52.8958px;line-height:1.25;font-family:Montserrat;-inkscape-font-specification:'Montserrat, Normal';fill:#0291ba;fill-opacity:1;stroke-width:1.3224" />
      <path
         d="M 124.95103,90.637306 112.62631,62.86701 h 3.91429 l 11.3197,25.760256 h -1.85135 L 137.48733,62.86701 h 3.70271 l -12.37762,27.770296 z"
         id="path11487"
         style="font-size:52.8958px;line-height:1.25;font-family:Montserrat;-inkscape-font-specification:'Montserrat, Normal';fill:#053f62;fill-opacity:1;stroke-width:1.3224" />
      <path
         d="m 157.48197,90.901785 q -4.33746,0 -7.617,-1.798457 -3.27954,-1.851353 -5.13089,-5.025101 -1.85135,-3.226644 -1.85135,-7.352517 0,-4.125872 1.74556,-7.29962 1.79845,-3.173748 4.86641,-4.972206 3.12085,-1.851353 6.98225,-1.851353 3.91429,0 6.92935,1.798458 3.06795,1.745561 4.81351,4.972205 1.74557,3.173748 1.74557,7.352516 0,0.264479 -0.0529,0.581854 0,0.264479 0,0.581854 H 145.7391 v -2.803477 h 22.16334 l -1.48108,1.110811 q 0,-3.01506 -1.3224,-5.342476 -1.2695,-2.380311 -3.49112,-3.702706 -2.22162,-1.322395 -5.13089,-1.322395 -2.85638,0 -5.1309,1.322395 -2.27452,1.322395 -3.54402,3.702706 -1.26949,2.380312 -1.26949,5.448268 v 0.581854 q 0,3.173748 1.37529,5.606955 1.42818,2.380311 3.91429,3.755602 2.53899,1.322395 5.76564,1.322395 2.539,0 4.70772,-0.899229 2.22163,-0.899229 3.8085,-2.750582 l 2.11583,2.433207 q -1.85135,2.221624 -4.65483,3.385332 -2.75058,1.163707 -6.08301,1.163707 z"
         id="path11489"
         style="font-size:52.8958px;line-height:1.25;font-family:Montserrat;-inkscape-font-specification:'Montserrat, Normal';fill:#0291ba;fill-opacity:1;stroke-width:1.3224" />
      <path
         d="M 177.63527,90.637306 V 62.86701 h 3.59691 v 7.5641 l -0.37027,-1.322395 q 1.16371,-3.173748 3.91429,-4.813518 2.75058,-1.692666 6.82356,-1.692666 v 3.649811 q -0.21158,0 -0.42317,0 -0.21158,-0.0529 -0.42316,-0.0529 -4.39035,0 -6.87646,2.697686 -2.4861,2.64479 -2.4861,7.564099 v 14.176075 z"
         id="path11491"
         style="font-size:52.8958px;line-height:1.25;font-family:Montserrat;-inkscape-font-specification:'Montserrat, Normal';fill:#053f62;fill-opacity:1;stroke-width:1.3224" />
      <path
         d="M 213.49853,90.637306 V 53.610245 h 3.91429 v 37.027061 z"
         id="path11493"
         style="font-size:52.8958px;line-height:1.25;font-family:Montserrat;-inkscape-font-specification:'Montserrat, Normal';fill:#0291ba;fill-opacity:1;stroke-width:1.3224" />
      <path
         d="m 236.66689,90.637306 v -33.64173 h -13.01237 v -3.385331 h 29.93903 v 3.385331 h -13.01237 v 33.64173 z"
         id="path11495"
         style="font-size:52.8958px;line-height:1.25;font-family:Montserrat;-inkscape-font-specification:'Montserrat, Normal';fill:#0291ba;fill-opacity:1;stroke-width:1.3224" />
    </g>
  </g>
</svg>
